<svg width="440" height="10" viewBox="0 0 440 10" fill="none" xmlns="http://www.w3.org/2000/svg">
<path d="M0 5C8.125 -0.333333 16.25 -0.333333 24.375 5C32.5 10.3333 40.625 10.3333 48.75 5C56.875 -0.333333 65 -0.333333 73.125 5C81.25 10.3333 89.375 10.3333 97.5 5C105.625 -0.333333 113.75 -0.333333 121.875 5C130 10.3333 138.125 10.3333 146.25 5C154.375 -0.333333 162.5 -0.333333 170.625 5C178.75 10.3333 186.875 10.3333 195 5C203.125 -0.333333 211.25 -0.333333 219.375 5C227.5 10.3333 235.625 10.3333 243.75 5C251.875 -0.333333 260 -0.333333 268.125 5C276.25 10.3333 284.375 10.3333 292.5 5C300.625 -0.333333 308.75 -0.333333 316.875 5C325 10.3333 333.125 10.3333 341.25 5C349.375 -0.333333 357.5 -0.333333 365.625 5C373.75 10.3333 381.875 10.3333 390 5C398.125 -0.333333 406.25 -0.333333 414.375 5C422.5 10.3333 430.625 10.3333 438.75 5C446.875 -0.333333 455 -0.333333 463.125 5C471.25 10.3333 479.375 10.3333 487.5 5C495.625 -0.333333 503.75 -0.333333 511.875 5C520 10.3333 528.125 10.3333 536.25 5C544.375 -0.333333 552.5 -0.333333 560.625 5C568.75 10.3333 576.875 10.3333 585 5" stroke="white" stroke-opacity="0.2" stroke-width="2"/>
</svg>
