<svg width="26" height="26" viewBox="0 0 26 26" fill="none" xmlns="http://www.w3.org/2000/svg">
<path d="M24.5524 6.51138V6.48183C24.2843 5.39547 23.5843 4.27274 22.6661 3.32728C21.5933 2.21819 20.2274 1.34774 18.9229 1.06592H18.8956C15.0052 0.320474 11.0087 0.320474 7.11834 1.06592H7.09107C4.66834 1.59092 2.0388 4.12274 1.45243 6.48183V6.51138C0.732001 9.78202 0.732001 13.1703 1.45243 16.4409V16.4682C1.87062 18.15 3.32516 19.9182 5.00243 20.9864C5.5502 21.3433 6.14645 21.6196 6.77289 21.8068V24.4387C6.77377 24.649 6.83726 24.8543 6.95526 25.0284C7.07326 25.2025 7.24043 25.3375 7.43546 25.4163C7.63049 25.495 7.84455 25.5139 8.05036 25.4705C8.25617 25.4272 8.4444 25.3235 8.59107 25.1727L11.2593 22.4C11.8365 22.4318 12.4183 22.45 12.9956 22.45C14.9717 22.4494 16.9433 22.2622 18.8843 21.8909H18.9115C21.3274 21.3637 23.9593 18.8318 24.5411 16.4727V16.4455C25.2659 13.1742 25.2698 9.78431 24.5524 6.51138ZM22.4411 15.9546C22.0502 17.4932 20.0547 19.4091 18.4661 19.7614C16.4027 20.1567 14.3026 20.3281 12.2024 20.2727C12.182 20.2715 12.1615 20.2749 12.1426 20.2828C12.1237 20.2907 12.1068 20.3028 12.0933 20.3182L10.1456 22.3182L8.07289 24.4432C8.03973 24.4782 7.99682 24.5025 7.9497 24.5129C7.90259 24.5233 7.85344 24.5193 7.80863 24.5014C7.76382 24.4835 7.72541 24.4526 7.69837 24.4126C7.67133 24.3727 7.65691 24.3255 7.65698 24.2773V19.9136C7.65703 19.8786 7.64478 19.8446 7.62236 19.8176C7.59994 19.7906 7.56876 19.7723 7.53425 19.7659C7.2029 19.6873 6.88344 19.565 6.58425 19.4023C5.23425 18.6818 3.87289 17.2046 3.55925 15.9546C2.90961 12.9982 2.90961 9.93596 3.55925 6.97956C3.94789 5.44774 5.95471 3.53638 7.53198 3.18183C11.1439 2.49073 14.8541 2.49073 18.4661 3.18183C19.3411 3.37729 20.3411 4.04319 21.1229 4.86138C21.7661 5.52729 22.2593 6.29547 22.4411 6.98638C23.0897 9.94059 23.0897 13.0003 22.4411 15.9546Z" fill="white"/>
<path d="M18.5229 16.1818C18.2276 16.8556 17.7199 17.4144 17.0774 17.7727C16.8758 17.8583 16.6665 17.9245 16.4524 17.9704C16.2092 17.8977 15.9774 17.8477 15.7706 17.7591C14.0478 17.0887 12.444 16.1456 11.0206 14.9659C10.5978 14.6053 10.2006 14.2157 9.83195 13.8C8.92158 12.7516 8.15708 11.585 7.55922 10.3318C7.26831 9.73861 7.02286 9.12498 6.77286 8.51361C6.54559 7.9568 6.88195 7.37725 7.2274 6.96134C7.56555 6.57562 7.98148 6.26581 8.44786 6.05225C8.61197 5.96977 8.79978 5.94734 8.97871 5.98885C9.15763 6.03037 9.31637 6.1332 9.4274 6.27952C10.0081 6.93192 10.5199 7.64251 10.9547 8.39998C11.0916 8.62023 11.1385 8.88476 11.0856 9.13867C11.0327 9.39259 10.8841 9.61638 10.6706 9.76361C10.557 9.84316 10.4433 9.93407 10.3456 10.0227C10.2492 10.094 10.1662 10.1817 10.1001 10.2818C10.0432 10.3754 10.0086 10.481 9.99912 10.5902C9.98966 10.6994 10.0056 10.8093 10.0456 10.9113C10.4842 12.1182 11.1501 13.125 12.1456 13.8318C12.4825 14.07 12.8454 14.269 13.2274 14.425C13.4769 14.5606 13.7571 14.6295 14.041 14.625C14.5365 14.5659 14.7001 14.0182 15.0456 13.7363C15.2042 13.6065 15.4004 13.5313 15.6051 13.5219C15.8098 13.5125 16.0121 13.5693 16.182 13.6841C16.5501 13.9113 16.9047 14.1682 17.2592 14.4182C17.6099 14.6575 17.9475 14.9154 18.2706 15.1909C18.4217 15.3006 18.5296 15.4598 18.5757 15.6408C18.6218 15.8218 18.6031 16.0132 18.5229 16.1818Z" fill="white"/>
<path d="M13.6522 5.29084H13.3613C13.4545 5.28629 13.5522 5.29084 13.6522 5.29084Z" fill="white"/>
<path d="M18.6819 12.1022C18.4546 12.1022 18.3433 11.909 18.3273 11.6976C18.2978 11.2817 18.2751 10.8635 18.2183 10.4499C18.12 9.752 17.877 9.08237 17.5046 8.48398C17.1219 7.86061 16.6127 7.32449 16.0098 6.9103C15.4069 6.4961 14.7238 6.21305 14.0046 6.07944C13.6773 6.02035 13.3433 6.00671 13.0137 5.97262C12.8046 5.94989 12.5296 5.93625 12.4842 5.67716C12.4774 5.62684 12.4814 5.57565 12.496 5.52701C12.5105 5.47837 12.5353 5.4334 12.5687 5.39511C12.602 5.35682 12.6432 5.32608 12.6893 5.30496C12.7355 5.28383 12.7857 5.27281 12.8364 5.27262C12.8909 5.26948 12.9456 5.26948 13.0001 5.27262C13.9935 5.28103 14.9695 5.53431 15.8417 6.01002C16.7138 6.48574 17.4552 7.16921 18.0001 7.99989C18.4302 8.66944 18.7223 9.41819 18.8592 10.2022C18.9455 10.6931 18.9773 11.1976 19.016 11.6976C19.0237 11.7466 19.021 11.7967 19.0079 11.8446C18.9948 11.8924 18.9718 11.937 18.9402 11.9752C18.9086 12.0135 18.8692 12.0446 18.8247 12.0665C18.7801 12.0884 18.7315 12.1005 18.6819 12.1022Z" fill="white"/>
<path d="M17.4526 11.0409C17.4514 11.1084 17.4422 11.1756 17.4254 11.241C17.4055 11.3067 17.3659 11.3647 17.3119 11.4071C17.258 11.4495 17.1922 11.4742 17.1237 11.4779C17.0551 11.4817 16.9871 11.4642 16.9289 11.4279C16.8706 11.3916 16.8249 11.3382 16.7981 11.275C16.7731 11.1833 16.7616 11.0883 16.764 10.9932C16.7693 10.4849 16.6687 9.981 16.4685 9.51368C16.4231 9.41368 16.3731 9.3114 16.3163 9.21368C15.991 8.65293 15.5081 8.2001 14.9276 7.9114C14.5775 7.74606 14.2056 7.63128 13.8231 7.5705C13.6549 7.54322 13.4867 7.52731 13.3185 7.50459C13.2748 7.50239 13.2319 7.49123 13.1926 7.47181C13.1533 7.45239 13.1184 7.42511 13.0901 7.39167C13.0618 7.35822 13.0406 7.31932 13.0279 7.27737C13.0152 7.23542 13.0112 7.19131 13.0163 7.14777C13.0163 7.10323 13.0257 7.0592 13.044 7.01856C13.0622 6.97793 13.0889 6.94161 13.1221 6.912C13.1554 6.88238 13.1945 6.86013 13.237 6.84671C13.2795 6.83329 13.3243 6.829 13.3685 6.83413C14.0359 6.85989 14.6896 7.0305 15.2845 7.33413C16.0108 7.69964 16.6033 8.285 16.9776 9.00686C17.1885 9.42834 17.3297 9.88117 17.3958 10.3478C17.4081 10.4086 17.4172 10.4701 17.4231 10.5319C17.4345 10.6682 17.439 10.8046 17.4504 10.9728C17.4504 10.9887 17.4526 11.0091 17.4526 11.0409Z" fill="white"/>
<path d="M15.8954 10.7273C15.8826 10.7849 15.8527 10.8374 15.8098 10.8779C15.7669 10.9184 15.7128 10.9451 15.6545 10.9546H15.6045C15.5301 10.9594 15.4561 10.9398 15.3937 10.8988C15.3314 10.8578 15.2841 10.7976 15.2591 10.7273C15.2449 10.69 15.2358 10.6511 15.2318 10.6114C15.2198 10.4585 15.1971 10.3066 15.1636 10.1569C15.096 9.85378 14.9238 9.5842 14.6772 9.3955C14.558 9.3099 14.4251 9.24533 14.2841 9.20459C14.1045 9.15231 13.9159 9.16595 13.7386 9.12277C13.651 9.10724 13.5731 9.05762 13.522 8.98478C13.4709 8.91194 13.4507 8.82181 13.4659 8.73413C13.4828 8.65014 13.5297 8.5752 13.5979 8.52332C13.6661 8.47145 13.7509 8.4462 13.8363 8.45231C14.8772 8.52731 15.6545 9.02731 15.8545 10.1432C15.8751 10.2468 15.8895 10.3516 15.8977 10.4569C15.9104 10.5466 15.9097 10.6378 15.8954 10.7273Z" fill="white"/>
</svg>
