<svg width="26" height="26" viewBox="0 0 26 26" fill="none" xmlns="http://www.w3.org/2000/svg">
<path d="M21.818 4.18182C19.7372 2.08023 16.9738 0.791387 14.0264 0.54778C11.079 0.304173 8.14156 1.12183 5.74392 2.85328C3.34628 4.58472 1.64629 7.11597 0.950588 9.99043C0.254884 12.8649 0.609264 15.8934 1.94981 18.5295L0.633897 24.9182C0.620243 24.9818 0.619856 25.0475 0.632761 25.1112C0.645666 25.175 0.671584 25.2354 0.708896 25.2886C0.763555 25.3695 0.841578 25.4317 0.932544 25.4671C1.02351 25.5024 1.12309 25.5091 1.21799 25.4864L7.47935 24.0023C10.1081 25.3089 13.1152 25.6405 15.9655 24.938C18.8158 24.2356 21.3245 22.5447 23.0452 20.1663C24.7658 17.7878 25.5868 14.876 25.3621 11.9491C25.1374 9.02209 23.8815 6.26976 21.818 4.18182ZM19.8657 19.7636C18.426 21.1993 16.5721 22.147 14.5652 22.4732C12.5583 22.7994 10.4996 22.4876 8.67935 21.5818L7.80662 21.15L3.96799 22.0591L3.97935 22.0114L4.77481 18.1477L4.34753 17.3045C3.41744 15.4779 3.08934 13.4037 3.41023 11.3792C3.73112 9.35465 4.68453 7.48361 6.1339 6.03409C7.95504 4.21351 10.4247 3.19076 12.9998 3.19076C15.5749 3.19076 18.0446 4.21351 19.8657 6.03409C19.8812 6.05188 19.8979 6.06858 19.9157 6.08409C21.7143 7.90937 22.7183 10.3717 22.709 12.9342C22.6996 15.4967 21.6776 17.9516 19.8657 19.7636Z" fill="white"/>
<path d="M19.5249 16.9296C19.0545 17.6705 18.3113 18.5773 17.3772 18.8023C15.7408 19.1978 13.2295 18.816 10.1045 15.9023L10.0658 15.8682C7.31811 13.3205 6.60447 11.2 6.7772 9.51822C6.87266 8.56368 7.66811 7.70004 8.33857 7.13641C8.44456 7.04594 8.57026 6.98153 8.7056 6.94833C8.84094 6.91513 8.98217 6.91405 9.118 6.9452C9.25383 6.97634 9.38049 7.03883 9.48785 7.12767C9.59521 7.21652 9.68029 7.32925 9.73629 7.45686L10.7477 9.72959C10.8134 9.87695 10.8377 10.0394 10.8181 10.1996C10.7985 10.3597 10.7356 10.5115 10.6363 10.6387L10.1249 11.3023C10.0152 11.4393 9.949 11.6061 9.93482 11.781C9.92064 11.956 9.95915 12.1312 10.0454 12.2841C10.3317 12.7864 11.0181 13.525 11.7795 14.2091C12.634 14.9819 13.5817 15.6887 14.1817 15.9296C14.3423 15.9952 14.5188 16.0112 14.6885 15.9755C14.8583 15.9399 15.0134 15.8542 15.134 15.7296L15.7272 15.1319C15.8417 15.019 15.984 14.9385 16.1397 14.8986C16.2954 14.8587 16.4589 14.8607 16.6136 14.9046L19.0158 15.5864C19.1484 15.6271 19.2698 15.6975 19.3709 15.7923C19.4721 15.8871 19.5502 16.0037 19.5993 16.1333C19.6484 16.2629 19.6673 16.4021 19.6544 16.5401C19.6415 16.6781 19.5972 16.8113 19.5249 16.9296Z" fill="white"/>
</svg>
