<svg width="22" height="13" viewBox="0 0 22 13" xmlns="http://www.w3.org/2000/svg">
<path d="M21.59 2.30609L11.69 12.6775C11.4893 12.8854 11.2312 13 10.964 13C10.6968 13 10.4387 12.8854 10.238 12.6775L0.338006 2.30609C0.13359 2.07468 0.0128527 1.75921 0.000968271 1.42545C-0.0109161 1.0917 0.0869698 0.765414 0.274216 0.514637C0.461462 0.26386 0.723616 0.107946 1.00602 0.0794044C1.28842 0.050863 1.56927 0.151897 1.79001 0.36144L10.964 9.96799L20.138 0.36144C20.2451 0.240208 20.3719 0.145786 20.5108 0.083864C20.6497 0.021942 20.7978 -0.0061978 20.9461 0.00114019C21.0945 0.00847818 21.24 0.0511421 21.374 0.126561C21.508 0.20198 21.6277 0.308592 21.7258 0.439972C21.8239 0.571353 21.8984 0.724781 21.9448 0.891011C21.9913 1.05724 22.0087 1.23283 21.996 1.4072C21.9833 1.58157 21.9408 1.7511 21.871 1.90559C21.8012 2.06007 21.7057 2.19631 21.59 2.30609Z" fill="#007296"/>
</svg>
