<svg width="272" height="10" viewBox="0 0 272 10" fill="none" xmlns="http://www.w3.org/2000/svg">
<path d="M1 4.99951C9.18182 -0.333822 17.3636 -0.333822 25.5455 4.99951C33.7273 10.3328 41.9091 10.3328 50.0909 4.99951C58.2727 -0.333822 66.4545 -0.333822 74.6364 4.99951C82.8182 10.3328 91 10.3328 99.1818 4.99951C107.364 -0.333822 115.545 -0.333822 123.727 4.99951C131.909 10.3328 140.091 10.3328 148.273 4.99951C156.455 -0.333822 164.636 -0.333822 172.818 4.99951C181 10.3328 189.182 10.3328 197.364 4.99951C205.545 -0.333822 213.727 -0.333822 221.909 4.99951C230.091 10.3328 238.273 10.3328 246.455 4.99951C254.636 -0.333822 262.818 -0.333822 271 4.99951" stroke="#007296" stroke-opacity="0.2" stroke-width="2"/>
</svg>
