<svg width="20" height="20" viewBox="0 0 20 20" fill="none" xmlns="http://www.w3.org/2000/svg">
<path d="M16.1645 18.0822V16.0866C16.1645 13.7361 14.3483 12.3304 12.6028 10.9589C12.3617 10.7699 12.0548 10.4109 12.0548 9.86301C12.0548 9.31508 12.3313 8.78082 12.6028 8.5523C14.3011 7.12328 16.1645 5.77504 16.1645 3.42465V1.91781H17.5343V0H2.46582V1.91781H3.83566V3.42469C3.83566 5.77512 5.69895 7.12332 7.39734 8.55234C7.66887 8.78086 7.94531 9.31508 7.94531 9.86305C7.94531 10.411 7.63844 10.7699 7.39734 10.9589C5.65187 12.3305 3.83566 13.7362 3.83566 16.0866V18.0822H2.46582V20H17.5343V18.0822H16.1645ZM6.54063 5.20547C6.03566 4.63394 5.75352 4.08383 5.75352 3.42465V1.91781H14.2466V3.42469C14.2466 4.08383 13.9644 4.63402 13.4595 5.20551H6.54063V5.20547ZM14.2466 17.5477L11.0212 16.2888C10.4595 16.0696 9.5409 16.0696 8.97926 16.2888L5.75352 17.5478V16.0867C5.75352 14.7568 6.81051 13.8587 8.53543 12.5037L8.58117 12.4678C9.23594 11.9544 9.66062 11.2393 9.80477 10.4514C9.93379 10.4801 10.0664 10.4801 10.1954 10.4514C10.339 11.2391 10.7642 11.9541 11.4181 12.467L11.4647 12.5037C13.1896 13.8587 14.2466 14.7565 14.2466 16.0866V17.5477H14.2466Z" fill="#2F211C"/>
</svg>
